PathFileType	4	(X/Y/Z)	20_2_55_p0_0-413_filt_butterworth.trc
DataRate	CameraRate	NumFrames	NumMarkers	Units	OrigDataRate	OrigDataStartFrame	OrigNumFrames
59.0	59.0	4	27	m	59.0	0	413
Frame#	Time	RHip			RKnee			RAnkle			RBigToe			RSmallToe			RHeel			LHip			LKnee			LAnkle			LBigToe			LSmallToe			LHeel			Neck			Head			Nose			RShoulder			RElbow			RWrist			RThumb			RIndex			RPinky			LShoulder			LElbow			LWrist			LThumb			LIndex			LPinky			
		X1	Y1	Z1	X2	Y2	Z2	X3	Y3	Z3	X4	Y4	Z4	X5	Y5	Z5	X6	Y6	Z6	X7	Y7	Z7	X8	Y8	Z8	X9	Y9	Z9	X10	Y10	Z10	X11	Y11	Z11	X12	Y12	Z12	X13	Y13	Z13	X14	Y14	Z14	X15	Y15	Z15	X16	Y16	Z16	X17	Y17	Z17	X18	Y18	Z18	X19	Y19	Z19	X20	Y20	Z20	X21	Y21	Z21	X22	Y22	Z22	X23	Y23	Z23	X24	Y24	Z24	X25	Y25	Z25	X26	Y26	Z26	X27	Y27	Z27	
0	0.0	0.34346745482893143	0.4560203935738742	0.9187206727913604	0.33313608020794533	0.6286303624979014	1.3401403797131837	0.32595756066484644	0.7929414688288239	1.7728302577470632	0.3271298966324742	0.6592190022078879	1.8174539828761023	0.38247025600027934	0.657166735934078	1.8022707224216628	0.31351758738315233	0.895029390590269	1.8533526626046282	0.15669119890204766	0.4814564636687252	0.912600927441005	0.13714955951169888	0.6718828167773692	1.3393448755702442	0.145266355355031	0.8120502920767478	1.7801541333599427	0.15849717854321152	0.5972161980267369	1.7806719316942683	0.11088404348966294	0.6349845349566761	1.7882463501209658	0.1547463443354491	0.8595687244254206	1.8243244963701897	0.2605603345953702	0.37556490538370263	0.353903590886077	0.24881174910687098	0.2881439437200273	0.1307998253208002	0.23489440156488633	0.23246032243300696	0.2646474040534774	0.39923462714304214	0.39037965960013454	0.4380008934916988	0.4383060112773453	0.35107652742626827	0.6959694006273297	0.2908582194073436	0.22710265756038767	0.7144188919341193	0.20857795427691875	0.17207559380570936	0.6640049044267486	0.20276374060581487	0.18555374186024517	0.6954213252934813	0.1879535655139486	0.23041870585400376	0.7292622101309091	0.09756423128162993	0.4145134103773617	0.4396580264654387	0.05632086869443452	0.4417236081943772	0.6704830784017798	0.14519183591927876	0.2179965154671794	0.7019406707386029	0.19751711308857556	0.1474083861018967	0.6629924960420052	0.20556096941773544	0.11459560498206164	0.6898077700653865	0.20812796805287312	0.17152625259589854	0.7539700999750704
1	0.0169491525423728	0.3432322453146747	0.45530436695185506	0.9165505452316199	0.33240519526371365	0.6268192815193442	1.3373655260541955	0.3258447186151488	0.793197660222881	1.7716420177978005	0.32715059577773087	0.6453445248235026	1.8070160379227176	0.3818963927658102	0.6568668545454103	1.801788154524262	0.3158129833942378	0.9028237408038475	1.855720206873897	0.15388117846432517	0.4884481911470308	0.9117783711874915	0.13717267216295218	0.671882846781711	1.3393116457723324	0.14533543009494168	0.8120309430493305	1.7801557229116045	0.1588226612971097	0.597781459765919	1.781085655750177	0.11112559257167237	0.6355694103211185	1.788782265044562	0.15523622155468447	0.8592185404956103	1.82696547446254	0.2605867911889529	0.37563408125369835	0.35392912682966093	0.24881346361401	0.2877976219450695	0.13104649038474786	0.2372342929013695	0.23285724512648415	0.26451271253311115	0.4017765082039759	0.39066124680446757	0.4380004807555069	0.44119268550569707	0.35749511986622007	0.6956623076240627	0.29088968923014497	0.2270463593556438	0.714546304898628	0.20947047524148263	0.1711763753687938	0.6656815623398753	0.19902117845625916	0.18281931153367267	0.6953670781249627	0.18618225055220786	0.22711395788619318	0.7324250190389796	0.09747734460608372	0.41433217056881744	0.43971069359417936	0.05735724191444669	0.4456025298875828	0.670392150124398	0.1435989245561921	0.22118224855251062	0.7027947896960212	0.1959513828207256	0.14447411010304964	0.6659485444988404	0.203432641145813	0.11426424374910249	0.6929762536308175	0.2068813128246987	0.17551416920026167	0.7522484147167298
2	0.0338983050847457	0.3431439754364238	0.455647913420894	0.915724878299899	0.3319422780126956	0.6258543346595069	1.3357988317740521	0.32579132157550206	0.7930225501234774	1.771425253044705	0.32741509598020674	0.6380227197775163	1.801453777991103	0.38149754880745806	0.6567045672293759	1.8014378956891695	0.31612968274280534	0.9038375020305978	1.8550416497065152	0.1522217884995208	0.49328382778711516	0.9127729866589476	0.1371865647566547	0.6719011236175263	1.339311634665467	0.14537930757170456	0.8120342177165498	1.7801522488184274	0.15899296226139079	0.5980441363907771	1.7812822636688053	0.11122256888039664	0.6357945567063505	1.7889927318239023	0.15548476483341964	0.8588369221282834	1.8284013465012134	0.26059252803591504	0.37565357905108704	0.35394464105450263	0.24888765302662355	0.28785566078517255	0.13115482568901174	0.23862609684619795	0.23306864248566722	0.2644365042817575	0.4033593787058868	0.39082117502606095	0.4380218413430138	0.4429464499139992	0.3612325219869062	0.6952196129407878	0.2909148320764743	0.22685092420893355	0.715087877522314	0.21010655926403843	0.17036158446856695	0.6657702909124693	0.1961992038400365	0.17683695842337027	0.6947164387593241	0.18619499344209448	0.21946589362427585	0.7346254190142955	0.09740502316866322	0.41418546355375474	0.43975367025658085	0.0583471139967704	0.44949682187623485	0.6697382542590828	0.14358127351756853	0.22492313198459682	0.704000069920117	0.1948943107118764	0.1429476358595413	0.6678570709546632	0.202351193816529	0.11497332838083553	0.6943906703280807	0.20625502056464046	0.17737146206034346	0.7511926067261816
3	0.0508474576271186	0.343216661374667	0.4568244659364479	0.9161516914391417	0.3318214414451652	0.6257055120353239	1.3354403746943104	0.3257728777499276	0.792537150285739	1.7718535280578482	0.3279941196259554	0.6379141828423126	1.8007264498315236	0.38130264159114763	0.656659069232791	1.8012711121986413	0.3146509049863879	0.8987177686751976	1.851821673225665	0.15178576773371247	0.49563272244048523	0.9151511510138981	0.13718889270566026	0.6719198393124775	1.3393287263531937	0.1453882939225162	0.8120610027405877	1.7801462939612702	0.15899615876516454	0.5979670544761202	1.7812391533322662	0.11118064645237298	0.6356439640932754	1.7888758875641841	0.15545920260465193	0.858423815925531	1.8285581364124384	0.26058081699712043	0.37562918462448586	0.3539514426872661	0.24931222708466405	0.28914172133652544	0.13095524930328337	0.23900560678364274	0.23307537790251906	0.2644239912862453	0.4037941908519278	0.39083985950029604	0.43806132473773957	0.44347184146238616	0.36211840877240276	0.6946196544561613	0.29092082756744864	0.22635546461289519	0.7162591499199074	0.21050137964217047	0.16963054269096225	0.6643699676772579	0.19495915333348404	0.16818882980045763	0.6935236094095758	0.18864217841263467	0.20825334014988098	0.7357023398333153	0.09734939031537593	0.41410197198013265	0.4397787493338937	0.059008097626897994	0.45235061206620175	0.6686617247364932	0.14517099215199875	0.2286408406015902	0.7054313834105919	0.19498322455274253	0.14284432810608275	0.6682973671843802	0.2025749841949009	0.11735739083548447	0.6941276638747351	0.2066574563391202	0.1764253197571991	0.7508966430459552
